<?xml version="1.0" standalone="no"?>
    <svg width="1601" height="1601" version="1.1" xmlns="http://www.w3.org/2000/svg">
    <path d="M1601 801 L750 2 L1586 950 L800 1 L1581 975 L483 66 L1524 1141 L602 26 L1544 1095 L876 4 L725 1597 L1271 153 L577 1569 L1384 253 L483 1535 L1366 235 L602 1575 L1330 200 L626 1581 L1310 184 L675 1591 L1291 168 L530 1553 L1401 271 L460 1524 L1433 310 L437 1513 L1448 330 L483 1535 L1417 291 L553 1561 L1330 200 L700 1594 L1291 168 L602 1575 L1384 253 L506 1544 L1348 217 L577 1569 L1401 271 L553 1561 L1291 168 L725 1597 L1271 153 L40 553 L1310 184 L530 1553 L1366 235 L57 506 L1476 372 L66 483 L1348 217 L483 1535 L1401 271 L460 1524 L1417 291 L506 1544 L1366 235 L77 460 L1489 393 L99 415 L1095 1544 L88 437 L1476 372 L99 415 L1118 1535 L88 437 L1489 393 L57 506 L1310 184 L700 1594 L1208 112 L577 1569 L1384 253 L66 483 L1502 415 L99 415 L1462 351 L20 626 L1476 372 L393 1489 L1462 351 L77 460 L1513 437 L99 415 L1095 1544 L77 460 L1348 217 L553 1561 L1271 153 L530 1553 L1417 291 L437 1513 L1401 271 L57 506 L1330 200 L675 1591 L1291 168 L57 506 L1462 351 L88 437 L1048 1561 L112 393 L1071 1553 L88 437 L1513 437 L40 553 L1524 460 L112 393 L1502 415 L32 577 L1330 200 L66 483 L1310 184 L602 1575 L1366 235 L577 1569 L1433 310 L506 1544 L1310 184 L48 530 L1417 291 L415 1502 L1448 330 L553 1561 L351 139 L626 1581 L1250 139 L577 1569 L1330 200 L530 1553 L351 139 L602 1575 L330 153 L1417 1310 L310 168 L725 1597 L800 1 L1600 826 L826 1 L1569 1024 L553 40 L1489 393 L26 602 L1476 372 L372 1476 L1462 351 L437 1513 L1569 577 L112 1208 L1561 553 L125 1229 L1544 506 L48 530 L1271 153 L77 460 L1141 1524 L88 437 L1401 271 L66 483 L1366 235 L88 437 L1291 168 L530 1553 L1462 351 L66 483 L1489 393 L32 577 L1524 460 L184 291 L1502 415 L48 530 L1476 372 L372 1476 L460 77 L1581 975 L750 2 L1591 926 L775 1 L1575 999 L506 57 L1513 1164 L626 20 L1417 1310 L651 15 L1513 1164 L950 15 L700 1594 L253 217 L651 1586 L310 168 L675 1591 L1348 217 L602 1575 L1271 153 L1 800 L1250 139 L775 1600 L217 253 L750 1599 L901 7 L725 1597 L291 184 L602 1575 L1250 139 L57 506 L1502 1186 L975 20 L651 1586 L1229 125 L700 1594 L851 2 L1600 826 L775 1 L1586 950 L750 2 L1575 999 L851 2 L1599 851 L876 4 L125 1229 L1553 530 L57 506 L1348 217 L88 437 L1271 153 L66 483 L1448 330 L437 1513 L1561 553 L460 1524 L1384 253 L48 530 L1291 168 L1 775 L1271 153 L99 415 L1118 1535 L112 393 L1462 351 L48 530 L1448 330 L393 1489 L1433 310 L483 1535 L1553 530 L112 1208 L1597 725 L99 1186 L1594 700 L112 1208 L1591 675 L99 1186 L1599 750 L88 1164 L1600 775 L725 4 L1591 675 L372 1476 L1476 372 L40 553 L1544 506 L437 1513 L1575 602 L460 1524 L415 99 L1601 801 L826 1 L1561 1048 L800 1 L1581 975 L577 32 L1575 999 L330 153 L1417 1310 L66 483 L1250 139 L553 1561 L1366 235 L626 1581 L330 153 L530 1553 L393 112 L1597 876 L851 2 L1601 801 L775 1 L725 1597 L1310 184 L626 1581 L1095 57 L217 1348 L1118 66 L626 1581 L1348 217 L48 530 L1229 125 L66 483 L1417 291 L10 675 L1401 271 L77 460 L1384 253 L57 506 L1433 310 L460 1524 L1569 577 L99 1186 L1561 553 L393 1489 L1553 530 L139 1250 L1535 483 L48 530 L1330 200 L77 460 L1164 1513 L66 483 L1489 1208 L999 26 L675 1591 L217 253 L725 1597 L950 15 L1271 1448 L1384 253 L88 437 L1330 200 L1208 1489 L1291 168 L99 415 L1048 1561 L125 372 L1024 1569 L99 415 L1310 184 L577 1569 L372 125 L1599 851 L271 200 L700 1594 L1291 168 L577 1569 L351 139 L506 1544 L1330 200 L2 750 L1348 217 L700 1594 L1271 153 L32 577 L1513 437 L530 1553 L310 168 L1581 975 L483 66 L1476 372 L372 1476 L1569 577 L66 483 L1208 112 L48 530 L1513 1164 L626 20 L1401 1330 L651 15 L1384 1348 L437 88 L235 1366 L415 99 L271 1401 L437 88 L1591 926 L775 1 L1600 775 L415 99 L530 1553 L1348 217 L4 725 L1330 200 L112 393 L1071 1553 L99 415 L1448 330 L20 626 L1271 153 L626 1581 L651 15 L1544 1095 L602 26 L999 1575 L139 351 L1118 1535 L77 460 L1502 415 L483 66 L1513 437 L184 291 L1489 393 L40 553 L1401 271 L1250 1462 L975 20 L1489 1208 L999 26 L700 1594 L826 1 L139 1250 L1544 506 L483 1535 L1561 553 L460 1524 L330 153 L577 1569 L675 10 L1348 1384 L700 7 L1330 1401 L675 10 L1502 1186 L975 20 L750 1599 L235 235 L725 1597 L851 2 L1401 1330 L700 7 L999 1575 L626 20 L393 1489 L1581 626 L271 200 L1535 483 L506 57 L235 1366 L1048 40 L651 1586 L901 7 L112 1208 L1599 750 L88 1164 L1597 725 L750 2 L1594 901 L291 184 L1591 926 L725 4 L153 1271 L1544 506 L460 1524 L1535 483 L40 553 L1250 139 L77 460 L1476 372 L372 1476 L1448 330 L77 460 L1401 1330 L506 57 L1476 372 L372 1476 L1561 553 L351 139 L1569 1024 L775 1 L1581 975 L602 26 L1489 393 L530 48 L1476 372 L372 1476 L1513 1164 L330 1448 L1591 926 L950 15 L750 1599 L926 10 L112 1208 L1586 651 L626 20 L1561 1048 L437 88 L253 1384 L460 77 L1553 1071 L826 1 L1594 700 L253 217 L602 1575 L1384 253 L1250 1462 L1366 235 L99 415 L1250 139 L506 1544 L1348 217 L1310 1417 L700 7 L168 1291 L1524 460 L57 506 L1489 1208 L1024 32 L235 1366 L460 77 L1384 1348 L1071 48 L602 1575 L271 200 L826 1600 L153 330 L1095 1544 L112 393 L1310 184 L77 460 L1417 291 L26 602 L1462 351 L168 310 L1476 372 L372 1476 L1597 725 L351 1462 L1513 1164 L826 1 L1600 826 L876 4 L750 1599 L153 330 L851 1599 L139 351 L926 1591 L153 330 L1118 1535 L88 437 L1048 1561 L184 291 L1462 351 L1208 1489 L1384 253 L7 700 L1366 235 L393 112 L253 1384 L372 125 L1401 1330 L330 153 L675 1591 L851 2 L1599 851 L577 32 L1535 483 L153 1271 L1524 460 L66 483 L1513 437 L393 1489 L1575 602 L217 253 L700 1594 L926 10 L1513 1164 L602 26 L415 1502 L626 20 L1348 1384 L1208 112 L725 1597 L826 1 L651 1586 L330 153 L1291 168 L351 139 L483 1535 L1348 217 L40 553 L1330 200 L393 112 L553 1561 L310 168 L1417 1310 L460 77 L1476 372 L372 1476 L1561 1048 L876 4 L1310 1417 L112 393 L1291 168 L393 112 L1401 1330 L675 10 L999 1575 L651 15 L975 1581 L700 7 L153 1271 L775 1 L125 1229 L1544 506 L506 57 L1366 1366 L577 32 L1586 950 L800 1 L1513 1164 L310 1433 L393 112 L415 1502 L1594 901 L437 88 L437 1513 L1433 310 L15 651 L1489 393 L577 32 L775 1600 L1250 139 L88 437 L1229 125 L626 1581 L310 168 L506 1544 L1535 483 L530 48 L1581 626 L253 1384 L415 99 L291 1417 L1544 506 L437 1513 L1594 901 L876 4 L626 1581 L602 26 L1597 876 L926 10 L1591 926 L530 48 L1569 1024 L800 1 L1601 801 L725 4 L950 1586 L750 2 L1591 675 L372 125 L1348 217 L99 415 L1535 483 L553 40 L200 1330 L1164 88 L1384 1348 L1291 168 L1208 1489 L1271 153 L112 393 L1513 437 L57 506 L1502 1186 L48 530 L1553 530 L460 1524 L1597 876 L975 20 L235 1366 L999 26 L99 1186 L1600 775 L725 4 L139 1250 L750 2 L975 1581 L553 40 L1597 876 L437 88 L506 1544 L1524 460 L437 1513 L1401 271 L483 66 L1524 1141 L437 1513 L330 153 L1600 775 L88 1164 L1597 725 L99 1186 L926 10 L675 1591 L253 217 L1535 483 L626 20 L950 1586 L139 351 L876 1597 L153 330 L775 1600 L1186 99 L217 1348 L437 88 L1476 372 L372 1476 L460 77 L1348 217 L1291 1433 L1366 235 L32 577 L1164 88 L602 1575 L1141 77 L200 1330 L1118 66 L10 926 L1095 57 L1384 1348 L1048 40 L800 1601 L139 351 L1095 1544 L77 460 L1208 112 L700 1594 L200 271 L1489 393 L1186 1502 L1476 372 L372 1476 L1535 483 L32 577 L1310 184 L1250 1462 L1291 168 L2 750 L1310 184 L1229 1476 L1271 153 L725 1597 L1250 139 L32 577 L1291 168 L40 553 L1433 310 L553 1561 L1384 253 L483 66 L1348 217 L393 112 L1561 1048 L415 1502 L1524 1141 L460 1524 L291 184 L1581 975 L851 2 L1594 700 L184 291 L1535 483 L483 1535 L1597 876 L901 7 L1310 1417 L725 4 L750 1599 L291 184 L626 1581 L577 32 L975 1581 L530 48 L1271 1448 L1366 235 L184 291 L1476 372 L372 1476 L351 139 L1417 1310 L700 7 L725 1597 L88 437 L1401 1330 L415 99 L235 1366 L950 15 L1586 950 L460 77 L1291 168 L415 99 L1330 200 L460 1524 L1569 1024 L88 1164 L1581 975 L750 2 L1599 750 L351 1462 L1569 577 L372 125 L553 1561 L271 200 L577 1569 L602 26 L675 1591 L235 235 L1462 351 L125 372 L530 1553 L1594 901 L460 1524 L1513 437 L1208 1489 L1489 393 L112 393 L1330 1401 L184 1310 L1417 1310 L437 88 L1601 801 L851 2 L775 1600 L271 200 L1513 437 L553 40 L1024 1569 L602 26 L1581 626 L112 1208 L876 4 L901 1594 L153 330 L483 1535 L125 372 L926 1591 L800 1 L1553 530 L577 32 L415 1502 L330 153 L1586 651 L725 4 L1594 901 L506 1544 L139 351 L901 1594 L851 2 L1600 826 L530 48 L1330 200 L351 139 L1366 1366 L675 10 L1535 1118 L351 1462 L351 139 L271 1401 L1561 553 L826 1 L1575 999 L750 2 L40 553 L1186 99 L750 1599 L775 1 L48 530 L1489 393 L460 77 L217 1348 L506 57 L1513 1164 L57 506 L1417 291 L1208 1489 L1476 372 L372 1476 L1575 602 L460 77 L1330 200 L1208 1489 L1250 139 L1141 1524 L77 460 L1524 460 L88 437 L1502 415 L26 602 L1330 200 L483 66 L1291 168 L66 483 L1476 1229 L1024 32 L700 1594 L800 1 L235 1366 L750 2 L48 530 L1433 310 L1250 1462 L1348 217 L184 291 L1401 271 L393 112 L437 1513 L1569 1024 L483 1535 L1553 530 L351 1462 L1553 1071 L330 153 L1271 153 L1462 1250 L330 1448 L351 139 L1600 826 L310 1433 L1591 926 L415 1502 L651 15 L1348 1384 L330 1448 L1513 1164 L975 20 L168 310 L1502 415 L651 15 L1513 1164 L950 15 L393 1489 L901 7 L125 1229 L1561 553 L112 1208 L1553 530 L57 506 L1229 125 L48 1071 L1271 153 L393 112 L1384 253 L10 675 L1462 351 L372 1476 L1476 372 L112 393 L577 1569 L1401 271 L7 700 L1476 372 L372 1476 L1433 1291 L602 26 L651 1586 L217 253 L1071 1553 L125 372 L1291 1433 L168 1291 L1229 1476 L77 1141 L1569 1024 L626 20 L1502 415 L506 57 L200 1330 L1229 125 L1330 1401 L851 2 L125 1229 L826 1 L626 1581 L99 415 L530 1553 L1599 851 L901 7 L112 393 L1048 1561 L200 271 L1462 351 L253 217 L235 1366 L926 10 L88 1164 L1575 999 L1071 48 L1586 950 L975 20 L675 1591 L1330 200 L1401 1330 L1048 40 L112 1208 L1600 775 L393 112 L1310 184 L1186 1502 L1348 217 L1384 1348 L506 57 L1291 168 L530 48 L700 1594 L88 437 L1417 291 L530 48 L1024 1569 L99 415 L1384 253 L460 77 L1310 184 L351 139 L750 1599 L168 310 L950 15 L1502 1186 L66 483 L1141 1524 L153 330 L1048 1561 L139 351 L460 1524 L1489 393 L1118 1535 L1502 415 L483 1535 L1535 483 L66 483 L800 1 L1544 506 L725 4 L1330 1401 L483 66 L1513 1164 L393 1489 L1561 1048 L351 1462 L1433 1291 L330 1448 L1535 1118 L926 10 L626 1581 L153 330 L553 1561 L330 153 L1601 801 L88 1164 L1502 1186 L826 1 L57 506 L1561 553 L112 393 L1384 253 L553 40 L1581 626 L437 1513 L1597 876 L271 200 L530 1553 L1208 112 L7 901 L1141 77 L32 577 L1448 330 L1208 1489 L1502 415 L125 372 L901 7 L1594 901 L553 1561 L112 393 L483 1535 L1535 483 L602 26 L1575 602 L851 2 L99 415 L1330 1401 L57 506 L750 2 L1591 926 L1024 32 L800 1601 L77 460 L1489 1208 L675 10 L168 1291 L1250 1462 L77 1141 L1581 975 L577 32 L437 1513 L1553 530 L530 48 L1513 1164 L271 1401 L372 125 L253 1384 L253 217 L1524 460 L750 2 L700 1594 L330 153 L1581 975 L99 1186 L876 4 L1384 1348 L1330 200 L1 775 L1310 184 L40 1048 L975 20 L153 330 L1310 184 L483 66 L217 1348 L1164 88 L40 553 L826 1 L1569 1024 L437 88 L1366 235 L483 1535 L1599 851 L553 1561 L700 7 L700 1594 L235 235 L651 1586 L99 415 L602 1575 L1229 125 L1489 1208 L112 393 L1250 139 L1476 1229 L291 184 L577 1569 L1594 901 L999 26 L77 1141 L1271 1448 L168 1291 L1513 437 L1229 1476 L57 1095 L1164 88 L553 1561 L602 26 L950 1586 L876 4 L1586 950 L437 1513 L1513 437 L393 1489 L393 112 L1591 675 L775 1 L66 483 L1186 99 L725 1597 L1330 200 L1310 1417 L1310 184 L553 40 L1291 168 L1095 1544 L168 310 L926 10 L926 1591 L750 2 L1575 602 L253 1384 L460 77 L1601 801 L826 1 L1591 675 L530 1553 L139 351 L826 1600 L217 253 L1601 801 L393 112 L372 1476 L1476 372 L253 217 L851 1599 L168 310 L1489 393 L351 1462 L1462 1250 L310 1433 L351 139 L1401 1330 L1271 153 L415 99 L460 1524 L1553 1071 L1118 66 L1561 1048 L1095 57 L200 1330 L1417 1310 L88 437 L602 1575 L876 4 L1433 310 L20 626 L1513 437 L460 77 L1366 235 L372 125 L1569 1024 L553 1561 L1535 1118 L530 1553 L1600 775 L330 1448 L1366 1366 L310 1433 L1433 1291 L310 168 L1448 1271 L415 99 L1597 876 L506 1544 L125 372 L1581 626 L725 4 L999 1575 L553 40 L200 1330 L1433 1291 L415 1502 L1575 602 L112 1208 L1597 725 L506 57 L1310 184 L372 125 L460 1524 L626 20 L1594 700 L99 1186 L1561 553 L77 460 L1164 1513 L1524 460 L626 20 L675 1591 L1384 253 L415 99 L1310 184 L26 602 L725 4 L40 553 L700 7 L48 530 L1366 235 L1250 1462 L975 20 L32 1024 L1229 1476 L999 26 L168 310 L1384 253 L530 1553 L1569 1024 L415 1502 L437 88 L1594 700 L372 1476 L1476 372 L351 1462 L1348 1384 L184 1310 L1208 112 L32 577 L1401 271 L1291 1433 L57 506 L700 7 L77 460 L1291 168 L577 32 L1544 506 L950 15 L217 1348 L1071 48 L15 950 L1164 88 L4 876 L1229 125 L775 1600 L1271 153 L483 66 L1366 235 L1208 1489 L1401 271 L99 415 L826 1 L112 1208 L1575 999 L310 168 L700 1594 L139 351 L626 1581 L1330 200 L483 1535 L1535 483 L1208 1489 L168 1291 L1366 1366 L437 88 L235 1366 L253 217 L1581 626 L851 2 L1433 310 L750 2 L1553 530 L184 291 L975 20 L725 1597 L675 10 L1417 1310 L66 483 L876 4 L1544 1095 L415 1502 L1348 1384 L372 1476 L1476 372 L1594 901 L393 1489 L1569 577 L393 112 L291 1417 L351 139 L153 1271 L1250 1462 L1489 393 L483 66 L1535 483 L483 1535 L1524 1141 L88 1164 L1544 1095 L372 1476 L1476 372 L1118 1535 L1524 460 L393 1489 L651 15 L1575 999 L506 57 L1348 217 L530 48 L1310 184 L1417 1310 L851 2 L750 1599 L750 2 L153 1271 L1271 1448 L1417 291 L15 651 L1448 330 L372 1476 L1476 372 L530 48 L626 1581 L88 437 L1071 1553 L1600 775 L1164 1513 L1489 393 L235 235 L437 1513 L553 40 L1569 1024 L506 1544 L1599 851 L775 1 L1535 483 L483 1535 L139 351 L999 1575 L1601 801 L235 235 L775 1600 L876 4 L112 393 L506 1544 L1586 950 L88 1164 L1575 602 L800 1 L1600 826 L876 1597 L999 26 L1513 1164 L437 88 L1401 1330 L1141 77 L1575 999 L775 1 L32 577 L725 4 L975 1581 L125 372 L1489 1208 L66 1118 L1569 1024 L415 99 L1401 271 L20 626 L1366 235 L506 57 L1271 153 L26 602 L1186 99 L184 1310 L1310 1417 L330 1448 L1600 826 L851 1599 L88 437 L675 1591 L291 184 L1597 725 L125 1229 L1586 651 L372 1476 L1476 372 L1594 901 L950 15 L1597 725 L926 10 L1535 483 L483 1535 L291 184 L1417 1310 L506 57 L1462 1250 L415 1502 L153 330 L1071 1553 L139 351 L675 1591 L1310 184 L577 32 L651 1586 L1597 876 L975 20 L235 235 L1095 57 L1586 950 L330 1448 L393 112 L271 1401 L1569 577 L826 1 L99 1186 L1553 530 L271 200 L1462 351 L15 651 L1229 125 L1 826 L1366 235 L1348 1384 L310 1433 L1553 1071 L460 77 L351 1462 L1291 1433 L77 1141 L950 15 L153 330 L800 1601 L775 1 L1433 310 L577 32 L1591 926 L112 1208 L372 125 L1330 200 L1250 1462 L530 48 L950 1586 L1601 801 L184 1310 L1448 1271 L330 1448 L1384 1348 L88 437 L577 1569 L1524 1141 L602 1575 L125 372 L876 4 L1417 291 L851 2 L48 530 L1164 88 L184 1310 L800 1 L77 460 L675 10 L1586 651 L577 1569 L851 2 L1575 999 L1048 40 L217 1348 L1208 112 L1 826 L1348 217 L351 139 L139 1250 L1535 483 L483 1535 L1417 1310 L437 1513 L1433 1291 L291 1417 L1462 1250 L1291 168 L602 26 L725 1597 L253 217 L1561 553 L351 1462 L1330 1401 L330 1448 L1271 1448 L125 372 L1348 217 L553 40 L1330 200 L168 310 L901 7 L1476 1229 L57 506 L1502 415 L393 1489 L1569 1024 L99 1186 L1591 675 L125 1229 L1581 626 L372 1476 L1476 372 L1229 1476 L48 1071 L1250 139 L351 139 L1384 1348 L99 415 L1586 651 L139 351 L1462 351 L20 626 L700 7 L66 483 L750 2 L1544 506 L88 437 L1489 1208 L1271 153 L1208 1489 L26 999 L999 26 L1502 1186 L651 15 L2 750 L626 20 L372 1476 L1476 372 L10 675 L1164 1513 L1599 750 L88 1164 L826 1 L1433 310 L725 4 L1569 577 L351 139 L1553 1071 L437 1513 L1513 437 L1581 975 L1524 460 L876 4 L1448 330 L88 437 L700 7 L1591 926 L372 125 L235 1366 L1594 700 L826 1 L48 530 L725 4 L1401 1330 L460 1524 L1599 851 L901 1594 L125 372 L1591 926 L1489 393 L393 1489 L1524 1141 L553 1561 L99 415 L1229 125 L1 800 L1417 291 L1250 1462 L1401 271 L876 4 L125 1229 L372 125 L415 1502 L1586 651 L750 2 L725 1597 L153 330 L602 1575 L1594 901 L310 1433 L950 1586 L125 372 L851 2 L168 310 L1366 235 L112 393 L651 1586 L1535 1118 L506 1544 L1600 775 L1048 1561 L1535 483 L483 1535 L1553 1071 L851 2 L217 1348 L437 88 L200 1330 L1448 1271 L77 460 L651 1586 L1186 99 L291 184 L1575 999 L602 1575 L1597 876 L876 4 L1535 483 L483 1535 L602 26 L1310 184 L725 4 L57 506 L800 1 L112 1208 L975 20 L1600 826 L876 4 L1591 926 L553 40 L1575 602 L200 271 L775 1600 L775 1 L1502 1186 L675 10 L975 1581 L851 2 L112 1208 L1594 700 L351 1462 L1366 1366 L651 15 L926 1591 L901 7 L1535 483 L483 1535 L1489 393 L393 1489 L1310 1417 L168 1291 L1348 1384 L1330 200 L40 1048 L1291 168 L725 4 L15 651 L1502 415 L460 77 L1401 271 L530 48 L217 1348 L1250 139 L393 112 L506 1544 L1401 1330 L330 1448 L1544 1095 L217 253 L506 1544 L1544 506 L775 1 L1401 271 L901 7 L1513 437 L1581 975 L200 1330 L530 48 L1366 235 L415 1502 L235 235 L271 1401 L1462 1250 L66 483 L675 10 L88 437 L1433 310 L901 7 L235 1366 L506 57 L1489 393 L393 1489 L1433 1291 L415 99 L57 1095 L775 1600 L675 10 L1594 901 L1476 372 L372 1476 L1310 1417 L483 66 L1535 1118 L66 1118 L1229 1476 L1462 351 L1601 801 L1024 1569 L200 271 L1524 460 L950 15 L235 235 L626 1581 L351 139 L1348 1384 L460 1524 L1535 483 L483 1535 L1330 1401 L651 15 L66 483 L700 1594 L1569 577 L99 1186 L372 125 L1561 553 L725 4 L1366 235 L1384 1348 L330 153 L1417 1310 L460 1524 L125 372 L775 1600 L651 15 L1401 1330 L1024 32 L184 291 L1095 1544 L1600 775 L1141 1524 L1513 437 L437 1513 L125 372 L1271 153 L1476 1229 L626 20 L20 626 L1141 77 L253 217 L876 1597 L77 1141 L1489 1208 L1250 139 L1401 1330 L851 2 L1448 330 L26 602 L1384 253 L40 553 L1208 112 L57 506 L626 20 L602 1575 L1553 530 L725 4 L1600 775 L310 168 L393 1489 L1489 393 L1600 826 L851 1599 L77 1141 L950 1586 L291 1417 L1348 1384 L271 1401 L351 139 L1594 700 L506 1544 L1544 506 L1575 999 L1535 483 L483 1535 L1384 253 L1208 1489 L1581 626 L675 10 L153 1271 L1524 460 L32 577 L800 1 L1310 184 L851 2 L1366 235 L775 1 L40 553 L1462 351 L4 725 L675 10 L1561 1048 L800 1 L99 415 L1489 1208 L415 99 L1250 139 L10 926 L1186 99 L217 1348 L1024 32 L235 235 L926 10 L1524 1141 L530 1553 L112 393 L1594 901 L750 2 L1417 291 L393 112 L351 1462 L1229 1476 L40 1048 L1186 1502 L1597 725 L675 10 L99 415 L1118 1535 L1513 437 L437 1513 L1502 415 L1095 1544 L200 271 L1384 253 L577 32 L1330 200 L1186 1502 L1462 351 L1271 1448 L184 1310 L437 88 L1591 926 L506 1544 L1544 506 L1208 1489 L20 975 L1048 40 L725 1597 L291 1417 L1586 950 L1513 437 L1600 826 L826 1600 L77 1141 L372 125 L1291 168 L750 2 L553 1561 L1575 999 L530 1553 L602 26 L393 1489 L1489 393 L1600 826 L826 1600 L57 1095 L1141 77 L1553 1071 L291 1417 L750 1599 L57 1095 L1271 1448 L310 1433 L1448 1271 L235 1366 L1208 112 L460 77 L999 1575 L153 330 L460 1524 L1366 1366 L88 437 L1575 602 L651 1586 L950 15 L1535 483 L483 1535 L415 99 L112 1208 L950 15 L40 1048 L1348 217 L1366 1366 L1118 66 L7 901 L483 66 L1601 801 L553 40 L1271 153 L1291 1433 L926 10 L1502 415 L20 626 L626 20 L66 483 L1433 1291 L271 1401 L460 77 L168 1291 L1330 200 L125 372 L826 1 L1561 553 L577 32 L1024 1569 L700 7 L7 700 L1164 1513 L66 483 L602 26 L1489 393 L393 1489 L1433 310 L372 1476 L1476 372 L351 1462 L184 291 L999 26 L253 1384 L253 217 L1524 1141 L99 1186 L1575 999 L1524 460 L483 66 L88 1164 L1597 876 L577 1569 L1553 530 L1569 1024 L1071 48 L800 1601 L48 1071 L1186 1502 L1581 626 L826 1 L168 310 L700 1594 L506 57 L1417 291 L901 7 L1384 253 L32 577 L675 10 L7 700 L700 7 L950 1586 L330 1448 L1417 1310 L553 1561 L1448 1271 L1291 168 L626 20 L20 626 L602 26 L1433 310 L800 1 L99 1186 L775 1 L235 1366 L725 4 L1384 1348 L415 99 L99 1186 L1586 651 L310 168 L1591 926 L1502 415 L1229 1476 L330 1448 L1476 1229 L125 372 L577 1569 L1535 1118 L675 1591 L553 40 L1581 975 L235 235 L1600 826 L826 1600 L291 1417 L775 1600 L66 1118 L1544 1095 L800 1601 L235 235 L901 7 L1366 235 L40 553 L651 15 L1291 168 L1186 1502 L32 1024 L999 26 L26 999 L725 1597 L1229 125 L26 602 L1118 66 L1581 975 L725 4 L1591 675 L112 1208 L1599 750 L1141 1524 L1250 139 L1462 1250 L437 1513 L1513 437 L1600 826 L826 1600 L184 291 L950 15 L1513 437 L437 1513 L1330 1401 L1401 271 L826 1 L1448 1271 L168 1291 L415 1502 L1586 950 L1502 415 L577 32 L20 626 L1489 393 L393 1489 L139 351 L602 1575 L800 1 L1544 506 L506 1544 L1348 1384 L253 1384 L950 1586 L271 1401 L626 1581 L1535 1118 L626 20 L77 460 L602 26 L184 1310 L1250 1462 L1513 437 L437 1513 L1366 1366 L415 1502 L291 184 L950 15 L460 77 L153 1271 L1348 1384 L77 1141 L901 1594 L1599 851 L253 217 L1489 393 L393 1489 L168 1291 L725 4 L1348 217 L851 2 L57 506 L1448 330 L4 725 L1417 291 L800 1 L1600 775 L1071 1553 L1524 460 L460 1524 L112 393 L1401 271 L15 651 L675 10 L1271 1448 L271 1401 L675 1591 L153 330 L651 1586 L1575 999 L975 20 L253 1384 L1591 926 L1489 393 L393 1489 L415 99 L1569 577 L675 1591 L351 139 L950 15 L393 112 L1164 88 L57 506 L1462 1250 L483 66 L77 1141 L725 1597 L651 15 L15 651 L1118 66 L253 217 L975 20 L1489 1208 L88 1164 L372 125 L139 1250 L351 139 L1601 801 L1462 351 L125 1229 L1476 372 L372 1476 L1553 1071 L415 1502 L1476 1229 L1310 184 L1581 626 L1291 168 L217 1348 L999 26 L26 999 L1186 1502 L1601 801 L750 2 L1448 330 L725 4 L66 483 L1433 310 L876 4 L1330 200 L2 851 L1271 153 L1186 1502 L1599 750 L999 26 L26 999 L775 1600 L826 1 L1310 184 L4 725 L651 15 L15 651 L1476 372 L372 1476 L184 1310 L1384 1348 L530 48 L1575 999 L1164 88 L775 1600 L310 1433 L700 1594 L32 1024 L750 1599 L330 1448 L77 1141 L926 1591 L851 2 L1401 271 L437 88 L1330 200 L775 1 L57 506 L1561 1048 L1553 530 L1024 32 L1476 1229 L553 1561 L1575 602 L1271 153 L184 1310 L1291 1433 L460 1524 L1524 460 L1600 826 L826 1600 L271 1401 L1366 1366 L253 1384 L1581 626 L602 1575 L291 1417 L800 1601 L1600 826 L826 1600 L168 310 L1071 1553 L553 40 L1594 901 L1476 372 L372 1476 L1462 351 L1208 1489 L15 950 L483 66 L950 15 L506 57 L1524 460 L460 1524 L351 139 L1569 1024 L1544 506 L506 1544 L975 1581 L1599 851 L88 1164 L1513 1164 L48 530 L651 15 L15 651 L1095 57 L99 1186 L1502 1186 L77 460 L775 1600 L168 1291 L1186 1502 L1544 506 L506 1544 L235 1366 L950 1586 L1601 801 L1476 372 L372 1476 L1448 330 L7 700 L700 7 L10 675 L675 10 L112 393 L651 15 L15 651 L1384 253 L876 4 L1476 372 L372 1476 L139 1250 L851 2 L1591 675 L999 1575 L530 48 L1433 310 L651 15 L15 651 L602 26 L88 437 L577 32 L1513 1164 L310 1433 L725 1597 L77 460 L1186 1502 L1502 415 L1600 826 L826 1600 L40 1048 L725 1597 L253 1384 L393 112 L1417 1310 L999 26 L26 999 L1229 1476 L1535 483 L483 1535 L1348 1384 L437 88 L1524 1141 L577 32 L1366 235 L926 10 L1586 950 L139 351 L1250 1462 L415 1502 L168 1291 L700 7 L7 700 L1502 415 L217 253 L1071 48 L1597 876 L999 26 L26 999 L851 1599 L1599 851 L1524 460 L460 1524 L975 1581 L506 57 L1476 372 L372 1476 L184 1310 L1502 415 L437 1513 L1513 437 L1581 975 L1208 112 L48 1071 L415 99 L66 1118 L372 125 L1330 1401 L1384 253 L750 2 L217 1348 L675 10 L10 675 L1208 112 L88 437 L1048 1561 L1600 775 L876 4 L1569 1024 L1561 553 L1561 1048 L1544 506 L506 1544 L153 330 L235 1366 L1141 77 L1544 1095 L750 1599 L77 1141 L310 1433 L1600 826 L826 1600 L253 1384 L577 1569 L1401 1330 L40 553 L626 20 L125 372 L602 26 L1330 200 L800 1 L1575 999 L483 1535 L1535 483 L750 2 L1348 217 L901 7 L1524 460 L460 1524 L1561 1048 L530 1553 L1417 1310 L530 48 L950 15 L253 217 L901 7 L876 1597 L1597 876 L675 10 L10 675 L1489 393 L393 1489 L153 1271 L1366 235 L1310 1417 L1291 168 L675 10 L10 675 L1448 330 L168 310 L800 1 L1384 253 L372 125 L975 20 L460 77 L1401 1330 L415 1502 L725 1597 L184 1310 L950 1586 L57 1095 L1433 1291 L77 460 L876 1597 L1597 876 L330 1448 L66 1118 L1524 1141 L506 1544 L1544 506 L291 184 L1586 950 L1118 1535 L66 483 L851 2 L1310 184 L57 506 L1310 1417 L506 1544 L1544 506 L602 26 L1594 901 L1489 393 L393 1489 L184 1310 L1141 77 L40 553 L602 26 L1448 1271 L700 7 L7 700 L1417 291 L725 4 L1401 271 L553 40 L88 437 L506 1544 L1544 506 L112 1208 L901 7 L10 926 L1186 1502 L1384 253 L926 10 L393 112 L235 1366 L1597 725 L253 217 L1600 826 L826 1600 L32 1024 L1208 1489 L1513 437 L437 1513 L99 415 L1417 291 L217 253 L901 1594 L310 1433 L48 1071 L775 1600 L271 1401 L626 1581 L77 1141 L1575 602 L1250 139 L310 168 L1513 437 L437 1513 L139 351 L235 1366 L1462 1250 L200 271 L999 26 L26 999 L460 77 L1071 48 L235 235 L999 26 L26 999 L800 1601 L77 1141 L1164 1513 L1544 506 L506 1544 L1417 1310 L483 66 L901 7 L393 112 L1118 66 L235 1366 L876 4 L1535 1118 L1561 553 L184 291 L725 1597 L351 1462 L1048 40 L1600 775 L1118 1535 L1489 393 L393 1489 L700 1594 L351 1462 L950 1586 L112 393 L1575 602 L1330 200 L1586 651 L530 1553 L975 1581 L1591 675 L1366 235 L876 4 L291 1417 L77 1141 L1513 1164 L393 112 L851 2 L253 217 L235 1366 L750 1599 L1553 530 L1553 1071 L700 7 L7 700 L506 57 L200 1330 L1513 437 L437 1513 L675 1591 L1553 530 L1581 975 L1502 415 L1600 826 L826 1600 L99 415 L700 7 L7 700 L1310 184 L1462 1250 L1048 40 L351 139 L1476 372 L372 1476 L125 1229 L750 2 L1600 826 L826 1600 L200 1330 L351 1462 L975 20 L310 168 L1401 1330 L553 1561 L125 372 L577 32 L26 602 L1569 1024 L1071 1553 L200 271 L1476 372 L372 1476 L168 1291 L950 1586 L1544 506 L506 1544 L1476 1229 L1291 168 L750 2 L112 1208 L483 66 L10 926 L1208 1489 L1599 750 L675 10 L10 675 L1141 77 L1561 553 L1071 48 L1591 926 L876 1597 L1597 876 L1095 57 L1366 1366 L99 415 L602 26 L48 530 L1024 1569 L626 20 L20 626 L1348 217 L926 10 L1433 310 L1 800 L1401 271 L2 851 L1208 112 L1291 1433 L271 1401 L700 1594 L88 1164 L1448 1271 L577 1569 L291 1417 L88 1164 L950 1586 L66 1118 L330 1448 L184 1310 L750 1599 L415 1502 L675 1591 L330 1448 L1489 1208 L901 7 L530 48 L851 2 L1575 602 L1208 1489 L1310 184 L626 20 L20 626 L602 26 L112 393 L1535 483 L483 1535 L975 1581 L775 1 L139 1250 L1048 1561 L1561 1048 L291 184 L1164 88 L460 77 L926 10 L1417 291 L1575 602 L1310 184 L125 372 L553 40 L1586 950 L826 1 L217 1348 L1448 1271 L291 184 L1071 48 L310 168 L950 15 L1591 926 L1118 1535 L112 393 L999 1575 L577 1569 L1600 826 L826 1600 L20 975 L1186 1502 L57 1095 L1186 99 L1 826 L626 20 L20 626 L553 40 L950 15 L1384 253 L4 725 L1476 372 L372 1476 L1433 310 L675 10 L10 675 L1095 57 L1575 999 L1535 483 L483 1535 L217 1348 L1591 926 L1489 393 L393 1489 L153 1271 L1366 1366 L1600 826 L826 1600 L168 1291 L351 1462 L200 1330 L1186 99 L32 577 L1569 1024 L1524 460 L460 1524 L626 1581 L4 876 L1164 1513 L1462 351 L1601 801 L1384 1348 L1271 153 L7 901 L1141 1524 L1502 415 L1600 826 L826 1600 L351 1462 L99 1186 L1601 801 L1535 483 L483 1535 L725 1597 L48 1071 L1291 168 L139 351 L602 26 L57 506 L153 330 L1502 415 L876 4 L1462 351 L1502 1186 L200 1330 L1229 1476 L168 1291 L1330 1401 L88 437 L926 10 L506 57 L66 483 L168 310 L1024 32 L460 77 L826 1 L1417 291 L415 99 L40 1048 L800 1601 L271 1401 L77 1141 L700 1594 L437 1513 L1513 437 L1575 602 L125 1229 L1594 700 L1384 253 L1384 1348 L1597 876 L876 1597 L1599 851 L851 1599 L253 1384 L1208 1489 L1535 483 L483 1535 L217 253 L1476 372 L372 1476 L1417 291 L602 26 L437 88 L99 415 L775 1 L1575 602 L1489 393 L393 1489 L750 1599 L310 1433 L57 1095 L271 200 L1591 675 L1024 1569 L1553 1071 L1561 553 L1118 66 L32 577 L626 20 L20 626 L1229 125 L351 139 L999 26 L26 999 L415 99 L975 20 L483 66 L826 1 L530 48 L139 351 L1489 1208 L651 1586 L1433 1291 L460 1524 L1524 460 L1599 851 L851 1599 L88 1164 L1186 99 L48 530 L626 20 L20 626 L1524 460 L460 1524 L626 1581 L351 1462 L184 1310 L291 1417 L750 1599 L700 7 L7 700 L1348 217 L32 1024 L1401 271 L926 10 L1348 217 L1581 626 L577 1569 L1348 1384 L437 1513 L1513 437 L725 4 L1024 1569 L1600 826 L826 1600 L77 460 L153 330 L40 553 L1524 460 L460 1524 L235 1366 L125 372 L1524 460 L460 1524 L725 1597 L330 1448 L235 1366 L851 2 L1384 253 L10 926 L876 4 L506 57 L651 15 L15 651 L1310 184 L168 310 L253 1384 L1433 1291 L77 1141 L1586 950 L1186 99 L1095 57 L415 99 L1600 826 L826 1600 L415 1502 L168 1291 L310 1433 L40 1048 L1271 153 L1462 1250 L415 99 L88 1164 L1597 725 L1186 1502 L1575 999 L1071 1553 L77 460 L153 330 L602 26 L235 235 L553 40 L826 1 L1513 1164 L40 553 L184 291 L48 530 L577 32 L57 506 L139 351 L66 483 L483 1535 L1535 483 L1599 851 L851 1599 L48 1071 L271 200 L1489 393 L393 1489 L1250 1462 L1581 975 L1561 553 L1401 271 L750 2 L1597 725 L975 20 L725 4 L950 15 L1366 235 L4 725 L1164 1513 L1597 876 L876 1597 L48 1071 L1024 32 L393 112 L506 57 L626 20 L20 626 L271 200 L1095 57 L1186 99 L1569 577 L1513 437 L437 1513 L975 1581 L57 1095 L291 1417 L184 1310 L1586 950 L1118 1535 L2 750 L1433 310 L77 460 L139 351 L1591 675 L1513 437 L437 1513 L626 1581 L506 1544 L1544 506 L1575 602 L577 1569 L1553 530 L1544 1095 L651 15 L15 651 L1164 88 L1544 1095 L1597 876 L876 1597 L125 372 L1489 393 L393 1489 L1348 1384 L1594 901 L1476 372 L372 1476 L153 1271 L1513 437 L437 1513 L725 1597 L530 1553 L700 1594 L1095 1544 L1535 483 L483 1535 L675 1591 L1586 651 L1118 1535 L153 330 L1476 372 L372 1476 L675 10 L10 675 L1330 200 L901 7 L1476 372 L372 1476 L168 310 L26 602 L626 20 L506 57 L393 112 L999 26 L26 999 L271 200 L57 506 Z" stroke="black" stroke-width="0.5" fill="none" />
</svg>