<?xml version="1.0" standalone="no"?>
    <svg width="1601" height="1601" version="1.1" xmlns="http://www.w3.org/2000/svg">
    <path d="M1601 801 L361 132 L373 1477 L306 172 L408 1498 L263 208 L397 1491 L253 217 L421 1505 L243 226 L433 1511 L234 236 L421 1505 L274 198 L408 1498 L224 246 L457 1523 L215 256 L445 1517 L284 189 L433 1511 L215 256 L482 1535 L196 276 L470 1529 L187 287 L495 1540 L178 297 L508 1545 L170 308 L495 1540 L327 155 L361 1469 L295 181 L457 1523 L421 96 L1566 1031 L445 84 L1558 1058 L470 72 L1549 1083 L508 56 L1503 1183 L667 12 L1382 1350 L694 8 L1363 1370 L680 10 L1427 1298 L831 1 L1311 1416 L804 1 L1444 1276 L640 17 L1400 1330 L708 6 L1391 1340 L626 20 L1435 1287 L790 1 L1311 1416 L873 4 L1400 1330 L749 2 L1343 1389 L804 1 L1460 1254 L763 1 L1418 1309 L600 26 L1460 1254 L708 6 L1343 1389 L790 1 L1427 1298 L886 5 L1409 1319 L721 4 L1353 1379 L818 1 L1467 1242 L613 23 L1382 1350 L680 10 L1452 1265 L818 1 L1322 1407 L776 1 L1311 1416 L763 1 L1444 1276 L968 18 L1332 1398 L845 2 L1435 1287 L694 8 L1391 1340 L859 3 L1444 1276 L900 7 L1467 1242 L927 11 L1363 1370 L667 12 L1353 1379 L859 3 L1409 1319 L586 30 L1427 1298 L626 20 L1382 1350 L831 1 L1363 1370 L653 14 L1452 1265 L981 21 L1435 1287 L900 7 L1418 1309 L667 12 L1460 1254 L914 9 L1452 1265 L790 1 L1332 1398 L721 4 L1467 1242 L941 13 L1372 1360 L694 8 L1467 1242 L776 1 L1427 1298 L1021 32 L1418 1309 L735 3 L1391 1340 L586 30 L1452 1265 L873 4 L1418 1309 L547 42 L1409 1319 L653 14 L1343 1389 L859 3 L1301 1425 L763 1 L1409 1319 L845 2 L1391 1340 L1074 49 L1363 1370 L613 23 L1427 1298 L560 38 L1391 1340 L900 7 L1322 1407 L790 1 L1475 1231 L954 15 L1460 1254 L927 11 L1435 1287 L667 12 L1372 1360 L886 5 L1460 1254 L995 24 L1444 1276 L708 6 L1311 1416 L749 2 L1444 1276 L573 34 L1400 1330 L914 9 L1427 1298 L749 2 L1301 1425 L818 1 L1372 1360 L1099 58 L1353 1379 L804 1 L1332 1398 L640 17 L626 1581 L95 424 L613 1578 L108 400 L600 1575 L95 424 L586 1571 L122 376 L573 1567 L130 364 L560 1563 L137 353 L534 1555 L153 330 L495 1540 L316 164 L385 1484 L284 189 L361 1469 L274 198 L433 1511 L397 110 L457 1523 L373 124 L421 1505 L316 164 L361 1469 L263 208 L433 1511 L457 78 L397 1491 L243 226 L385 1484 L339 147 L508 1545 L350 139 L445 1517 L421 96 L397 1491 L295 181 L445 1517 L408 103 L521 1550 L385 117 L482 1535 L306 172 L470 1529 L170 308 L457 1523 L361 132 L1595 897 L385 117 L1589 938 L408 103 L547 1559 L145 341 L470 1529 L873 4 L1363 1370 L640 17 L613 1578 L626 20 L1452 1265 L1035 36 L1444 1276 L941 13 L1475 1231 L735 3 L1372 1360 L914 9 L1475 1231 L680 10 L1311 1416 L886 5 L1418 1309 L995 24 L1467 1242 L586 30 L653 1587 L82 448 L640 1584 L76 460 L667 1589 L65 486 L680 1591 L55 511 L653 1587 L339 147 L373 1477 L295 181 L408 1498 L215 256 L421 1505 L350 139 L397 1491 L234 236 L385 1484 L873 4 L1435 1287 L573 34 L1382 1350 L547 42 L1539 1109 L508 56 L408 1498 L495 61 L1533 1122 L573 34 L640 1584 L653 14 L1391 1340 L886 5 L482 1535 L373 124 L521 1550 L433 90 L495 1540 L845 2 L1322 1407 L721 4 L1400 1330 L680 10 L653 1587 L534 46 L600 1575 L626 20 L1311 1416 L600 26 L1353 1379 L873 4 L1460 1254 L1048 40 L1435 1287 L818 1 L1418 1309 L968 18 L1467 1242 L1061 44 L1353 1379 L653 14 L1311 1416 L845 2 L1290 1433 L804 1 L560 1563 L284 189 L373 1477 L234 236 L508 1545 L327 155 L482 1535 L470 72 L586 1571 L573 34 L547 1559 L397 110 L1600 828 L339 147 L445 1517 L253 217 L408 1498 L373 124 L1586 951 L397 110 L534 1555 L445 84 L1591 924 L421 96 L573 1567 L818 1 L1363 1370 L1125 69 L1400 1330 L954 15 L1452 1265 L1008 28 L1427 1298 L1035 36 L1409 1319 L708 6 L1301 1425 L776 1 L1452 1265 L845 2 L421 1505 L306 172 L457 1523 L470 72 L640 1584 L560 38 L1353 1379 L941 13 L1322 1407 L763 1 L653 1587 L667 12 L626 1581 L71 473 L680 1591 L45 537 L721 1597 L41 550 L667 1589 L600 26 L600 1575 L508 56 L560 1563 L115 388 L534 1555 L385 117 L433 1511 L327 155 L397 1491 L178 297 L482 1535 L361 132 L521 1550 L196 276 L408 1498 L361 132 L1577 991 L482 66 L1596 883 L408 103 L1600 814 L433 90 L470 1529 L859 3 L1332 1398 L914 9 L1444 1276 L1061 44 L1460 1254 L941 13 L1391 1340 L680 10 L1444 1276 L831 1 L1290 1433 L790 1 L1409 1319 L968 18 L1363 1370 L573 34 L613 1578 L547 42 L1343 1389 L1150 81 L1332 1398 L534 46 L586 1571 L457 78 L560 1563 L421 96 L385 1484 L215 256 L373 1477 L274 198 L397 1491 L170 308 L385 1484 L306 172 L1600 773 L373 124 L495 1540 L900 7 L1382 1350 L1112 64 L1435 1287 L600 26 L653 1587 L721 4 L640 1584 L521 51 L573 1567 L339 147 L521 1550 L243 226 L445 1517 L224 246 L433 1511 L205 266 L421 1505 L521 51 L776 1600 L613 23 L613 1578 L831 1 L1332 1398 L694 8 L1489 1207 L886 5 L1363 1370 L626 20 L1516 1159 L600 26 L1332 1398 L776 1 L470 1529 L327 155 L1599 842 L385 117 L1574 1005 L470 72 L573 1567 L263 208 L470 1529 L408 103 L560 1563 L95 424 L534 1555 L508 56 L776 1600 L600 26 L1400 1330 L1008 28 L1475 1231 L981 21 L1427 1298 L1087 53 L1460 1254 L859 3 L1418 1309 L521 51 L613 1578 L482 66 L600 1575 L586 30 L1311 1416 L560 38 L831 1600 L482 66 L122 1225 L470 72 L408 1498 L187 287 L385 1484 L295 181 L350 1462 L274 198 L482 1535 L316 164 L1599 856 L350 139 L1593 910 L457 78 L547 1559 L385 117 L1599 759 L408 103 L187 1314 L397 110 L508 1545 L445 84 L586 1571 L831 1 L1400 1330 L927 11 L1452 1265 L1074 49 L1418 1309 L721 4 L1372 1360 L653 14 L626 1581 L560 38 L586 1571 L433 90 L408 1498 L339 147 L495 1540 L224 246 L373 1477 L205 266 L1391 1340 L763 1 L640 1584 L708 6 L1322 1407 L640 17 L790 1600 L534 46 L1311 1416 L995 24 L1372 1360 L845 2 L1343 1389 L613 23 L1322 1407 L573 34 L845 1599 L600 26 L640 1584 L680 10 L1372 1360 L900 7 L1427 1298 L1048 40 L1382 1350 L1008 28 L1322 1407 L804 1 L653 1587 L37 563 L708 1595 L55 511 L626 1581 L495 61 L130 1237 L445 84 L482 1535 L153 330 L445 1517 L361 132 L1600 787 L457 78 L521 1550 L316 164 L397 1491 L161 319 L457 1523 L263 208 L421 1505 L831 1 L1460 1254 L1021 32 L1435 1287 L1099 58 L1467 1242 L954 15 L1409 1319 L694 8 L667 1589 L573 34 L886 1596 L534 46 L547 1559 L521 51 L1311 1416 L694 8 L1301 1425 L886 5 L1343 1389 L818 1 L421 1505 L1583 965 L361 132 L433 1511 L137 353 L457 1523 L433 90 L196 1325 L421 96 L534 1555 L373 124 L470 1529 L234 236 L1574 596 L284 189 L1591 677 L316 164 L470 1529 L845 2 L653 1587 L790 1 L560 1563 L586 30 L900 1594 L547 42 L804 1600 L470 72 L600 1575 L71 473 L586 1571 L547 42 L1311 1416 L1187 100 L1343 1389 L981 21 L1460 1254 L1074 49 L1467 1242 L1035 36 L1353 1379 L626 20 L859 1598 L495 61 L1311 1416 L818 1 L1391 1340 L914 9 L508 1545 L385 117 L215 1345 L373 124 L1596 718 L408 103 L1562 1044 L397 1491 L224 246 L421 1505 L1586 951 L586 30 L818 1600 L482 66 L790 1600 L457 78 L115 1213 L445 84 L790 1600 L626 20 L626 1581 L600 26 L1322 1407 L886 5 L1467 1242 L1087 53 L1400 1330 L859 3 L1382 1350 L749 2 L653 1587 L327 155 L408 1498 L243 226 L361 1469 L306 172 L521 1550 L482 66 L954 1586 L600 26 L914 1592 L560 38 L818 1600 L653 14 L1332 1398 L735 3 L1427 1298 L873 4 L1279 1442 L845 2 L626 1581 L547 42 L560 1563 L397 110 L178 1304 L508 56 L137 1248 L470 72 L560 1563 L108 400 L521 1550 L187 287 L1382 1350 L954 15 L1444 1276 L1125 69 L1332 1398 L626 20 L653 1587 L33 576 L735 1598 L25 603 L708 1595 L50 524 L667 1589 L350 139 L534 1555 L495 61 L1598 869 L306 172 L397 1491 L153 330 L1435 1287 L1061 44 L1400 1330 L667 12 L1343 1389 L927 11 L1489 1207 L900 7 L1353 1379 L776 1 L1290 1433 L763 1 L1435 1287 L914 9 L1496 1196 L350 1462 L263 208 L385 1484 L161 319 L859 1598 L613 23 L927 1590 L573 34 L1311 1416 L470 72 L1595 897 L445 1517 L1596 883 L508 56 L88 1165 L495 61 L845 1599 L547 42 L60 1103 L534 46 L145 1260 L521 51 L873 1597 L667 12 L1516 1159 L350 1462 L1533 1122 L667 12 L640 1584 L508 56 L547 1559 L284 189 L457 1523 L253 217 L361 1469 L215 256 L1400 1330 L1021 32 L1391 1340 L1162 87 L1409 1319 L1137 75 L1452 1265 L968 18 L433 1511 L130 364 L547 1559 L445 84 L108 1201 L433 90 L790 1600 L547 42 L153 1271 L397 110 L1600 773 L508 1545 L284 189 L495 1540 L457 78 L1570 1018 L397 1491 L196 276 L373 1477 L1549 1083 L600 26 L613 1578 L495 61 L1600 828 L350 139 L1581 978 L433 1511 L316 164 L586 1571 L408 103 L1589 663 L327 155 L534 1555 L1598 732 L274 198 L470 1529 L1601 801 L445 84 L1311 1416 L613 23 L968 1583 L508 56 L1311 1416 L914 9 L640 1584 L886 5 L1444 1276 L1112 64 L1322 1407 L859 3 L640 1584 L33 576 L613 1578 L560 38 L573 1567 L433 90 L482 1535 L339 147 L263 1393 L327 155 L1583 636 L339 147 L1343 1389 L721 4 L1382 1350 L640 17 L1372 1360 L1137 75 L1343 1389 L954 15 L1363 1370 L804 1 L1435 1287 L1035 36 L1418 1309 L1174 93 L914 1592 L508 56 L495 1540 L1600 814 L350 139 L586 1571 L600 26 L65 1115 L560 38 L1322 1407 L586 30 L941 1588 L640 17 L1343 1389 L224 246 L470 1529 L385 117 L421 1505 L170 308 L1418 1309 L981 21 L1372 1360 L708 6 L626 1581 L101 411 L495 1540 L397 110 L445 1517 L234 236 L1562 557 L295 181 L339 1454 L1460 1254 L327 1446 L1467 1242 L1048 40 L1452 1265 L361 1469 L1509 1171 L831 1 L600 1575 L457 78 L818 1600 L521 51 L95 1177 L433 90 L1589 938 L421 1505 L284 189 L408 1498 L205 266 L1363 1370 L790 1 L1391 1340 L873 4 L1409 1319 L941 13 L653 1587 L735 3 L886 1596 L560 38 L161 1282 L421 96 L521 1550 L88 436 L495 1540 L482 66 L1599 759 L508 56 L873 1597 L640 17 L640 1584 L25 603 L749 1599 L1234 128 L1279 1442 L831 1 L1372 1360 L586 30 L626 1581 L534 46 L1322 1407 L626 20 L981 1580 L534 46 L55 1090 L521 51 L586 1571 L482 66 L82 1153 L586 30 L859 1598 L145 341 L397 1491 L137 353 L859 1598 L470 72 L1600 773 L470 1529 L1593 910 L457 1523 L187 287 L373 1477 L263 208 L1599 745 L521 51 L50 1077 L508 56 L804 1600 L457 78 L137 1248 L421 96 L790 1600 L7 698 L776 1600 L14 657 L721 1597 L234 236 L1372 1360 L1162 87 L900 1594 L1150 81 L1460 1254 L1125 69 L900 1594 L680 10 L1353 1379 L763 1 L1452 1265 L995 24 L1435 1287 L653 14 L1562 1044 L626 20 L22 985 L1343 212 L19 971 L626 20 L1577 991 L560 38 L196 1325 L534 46 L831 1600 L470 72 L534 1555 L253 217 L1353 1379 L573 34 L600 1575 L804 1 L1418 1309 L1150 81 L749 1599 L29 590 L600 1575 L495 61 L145 1260 L482 66 L1311 1416 L421 96 L482 1535 L1600 814 L373 124 L445 1517 L1598 869 L534 46 L1544 1096 L385 1484 L153 330 L421 1505 L339 147 L560 1563 L1591 677 L385 117 L1583 965 L653 14 L995 1577 L640 17 L1581 978 L573 34 L205 1335 L373 124 L187 1314 L560 38 L859 1598 L1125 69 L1391 1340 L981 21 L445 1517 L161 319 L1363 1370 L708 6 L1503 1183 L927 11 L653 1587 L900 7 L1400 1330 L1187 100 L927 1590 L749 2 L1290 1433 L886 5 L1482 1219 L1008 28 L1460 1254 L306 1429 L1482 1219 L1048 40 L1444 1276 L373 1477 L327 155 L445 1517 L1599 856 L433 1511 L941 13 L1435 1287 L385 1484 L408 103 L573 1567 L65 486 L653 1587 L694 8 L927 1590 L626 20 L640 1584 L613 23 L1332 1398 L900 7 L433 1511 L178 297 L873 1597 L626 20 L16 958 L613 23 L831 1600 L1234 128 L804 1600 L445 84 L600 1575 L421 96 L108 1201 L408 103 L508 1545 L196 276 L445 1517 L108 400 L1311 185 L600 1575 L560 38 L1343 1389 L1021 32 L1409 1319 L927 11 L1382 1350 L845 2 L613 1578 L50 524 L573 1567 L295 181 L521 1550 L234 236 L1554 530 L263 208 L1586 650 L421 96 L224 1355 L408 103 L457 1523 L1577 991 L445 1517 L145 341 L1353 1379 L640 17 L25 998 L1322 194 L19 971 L667 12 L1008 1573 L708 6 L954 1586 L653 14 L886 1596 L1099 58 L1452 1265 L350 1462 L253 217 L1382 1350 L776 1 L1522 1147 L339 1454 L1533 1122 L327 1446 L1475 1231 L1074 49 L1444 1276 L170 308 L1372 1360 L749 2 L1409 1319 L995 24 L1427 1298 L397 1491 L886 5 L626 1581 L508 56 L1322 1407 L667 12 L1391 1340 L968 18 L1482 1219 L873 4 L653 1587 L653 14 L29 1011 L600 26 L831 1600 L495 61 L547 1559 L433 90 L534 1555 L1596 718 L316 164 L263 1393 L295 181 L470 1529 L205 266 L547 1559 L339 147 L1322 1407 L927 11 L749 1599 L19 630 L640 1584 L60 498 L694 1593 L1528 467 L680 1591 L708 6 L1332 1398 L521 51 L560 1563 L1589 663 L224 246 L1566 570 L284 189 L1544 505 L694 1593 L22 616 L763 1600 L1268 151 L1245 1465 L1257 143 L763 1600 L859 3 L626 1581 L613 23 L14 944 L600 26 L573 1567 L547 42 L101 1190 L397 110 L130 1237 L385 117 L1581 623 L274 198 L385 1484 L178 297 L373 1477 L170 308 L1409 282 L6 890 L708 6 L941 1588 L482 66 L470 1529 L1599 759 L316 164 L534 1555 L1586 650 L445 84 L234 1365 L433 90 L1554 1071 L694 8 L914 1592 L1162 87 L1452 1265 L1125 69 L749 1599 L1222 121 L1322 1407 L361 132 L1598 732 L534 46 L776 1600 L4 725 L804 1600 L653 14 L1301 1425 L804 1 L1400 1330 L995 24 L25 603 L600 1575 L613 23 L1554 1071 L339 1454 L1452 1265 L1087 53 L845 1599 L153 330 L1353 1379 L735 3 L1021 1569 L721 4 L968 1583 L495 61 L170 1293 L433 90 L82 1153 L421 96 L1544 505 L680 1591 L613 23 L1301 1425 L900 7 L1452 1265 L831 1 L408 1498 L1418 1309 L1048 40 L1363 1370 L914 9 L749 1599 L196 276 L421 1505 L122 376 L534 1555 L243 226 L482 1535 L1591 924 L586 30 L215 1345 L573 34 L653 1587 L76 460 L521 1550 L1600 787 L482 1535 L1574 1005 L667 12 L900 1594 L1112 64 L1467 1242 L1137 75 L914 1592 L88 436 L1222 121 L613 1578 L470 72 L818 1600 L573 34 L995 1577 L547 42 L205 1335 L445 84 L495 1540 L350 139 L274 1403 L457 78 L122 1225 L373 124 L1593 691 L274 198 L1391 1340 L196 276 L1509 430 L2 752 L1503 418 L243 226 L1595 704 L521 1550 L161 319 L1418 292 L3 862 L708 6 L2 849 L1435 314 L153 330 L873 1597 L573 34 L626 1581 L482 66 L573 1567 L534 46 L153 1271 L373 124 L573 1567 L253 217 L433 1511 L108 400 L508 1545 L1581 623 L445 84 L1522 454 L11 931 L600 26 L1301 1425 L845 2 L1522 1147 L640 17 L886 1596 L1087 53 L1435 1287 L361 1469 L1444 1276 L818 1 L749 1599 L1516 442 L9 917 L600 26 L1008 1573 L694 8 L1353 1379 L1199 107 L1409 1319 L421 1505 L145 341 L1322 194 L1174 1508 L1301 176 L115 388 L1268 151 L45 1064 L508 56 L41 1051 L495 61 L776 1600 L11 670 L708 1595 L1549 518 L397 110 L170 1293 L361 132 L560 1563 L445 84 L397 1491 L1503 1183 L373 1477 L1427 1298 L1061 44 L1391 1340 L749 2 L1035 1565 L735 3 L1382 1350 L941 13 L1332 1398 L680 10 L667 1589 L37 563 L735 1598 L16 643 L626 1581 L1427 1298 L1187 100 L1382 1350 L178 297 L457 1523 L350 139 L1554 530 L721 1597 L196 276 L1332 1398 L873 4 L900 1594 L653 14 L613 1578 L457 78 L573 1567 L1593 691 L495 1540 L1566 1031 L680 10 L1301 1425 L640 17 L845 1599 L130 364 L397 1491 L187 287 L1409 282 L316 164 L1595 897 L667 1589 L1599 842 L284 189 L253 1384 L457 78 L1577 610 L534 46 L101 1190 L373 124 L1475 370 L1 794 L1467 359 L385 117 L586 1571 L804 1 L1539 1109 L327 1446 L1554 1071 L653 1587 L1562 1044 L327 1446 L1496 1196 L954 15 L1418 1309 L776 1 L1400 1330 L433 1511 L859 3 L1311 1416 L735 3 L1363 1370 L1112 64 L1460 1254 L295 1420 L1482 1219 L1021 32 L1444 1276 L350 1462 L243 226 L1343 1389 L914 9 L914 1592 L680 10 L33 1025 L667 12 L1586 951 L421 96 L76 1141 L397 110 L385 1484 L1418 1309 L1008 28 L640 1584 L900 7 L749 1599 L1210 113 L1427 1298 L818 1 L613 1578 L76 460 L482 1535 L284 189 L397 1491 L122 376 L873 1597 L547 42 L600 1575 L45 537 L1048 40 L886 1596 L161 319 L373 1477 L1372 1360 L927 11 L927 1590 L1174 93 L1400 1330 L981 21 L25 603 L586 1571 L306 172 L274 1403 L1372 1360 L457 1523 L1391 1340 L954 15 L763 1600 L1245 136 L1234 1473 L327 155 L547 1559 L263 208 L1489 394 L16 958 L1482 382 L361 132 L1583 636 L521 1550 L115 388 L845 1599 L626 20 L763 1600 L205 266 L534 1555 L1600 828 L508 1545 L470 72 L1509 430 L749 1599 L859 3 L886 1596 L482 66 L421 1505 L804 1 L1 766 L818 1600 L408 103 L196 1325 L521 51 L981 1580 L735 3 L1 807 L1482 382 L482 66 L1599 842 L316 164 L408 1498 L1409 1319 L1099 58 L1460 1254 L640 1584 L1489 1207 L1035 36 L45 537 L560 1563 L350 139 L1489 394 L470 72 L1574 596 L560 38 L804 1600 L433 90 L145 1260 L361 132 L1595 704 L433 90 L1539 492 L694 1593 L9 684 L900 7 L914 1592 L586 30 L9 917 L1509 430 L205 266 L495 1540 L95 424 L457 1523 L1595 897 L421 1505 L1599 856 L560 38 L653 1587 L1570 1018 L694 8 L1322 1407 L234 236 L1596 718 L327 155 L170 1293 L640 17 L653 1587 L1577 991 L339 147 L1558 543 L735 1598 L41 550 L1061 44 L1452 1265 L316 1437 L1475 1231 L640 1584 L1522 1147 L361 1469 L1528 1134 L790 1 L1048 1561 L763 1 L1 821 L1452 336 L397 110 L1311 1416 L667 12 L968 1583 L1125 69 L60 498 L547 1559 L1589 663 L547 42 L161 1282 L385 117 L1460 347 L482 66 L41 1051 L1245 136 L1332 1398 L1021 32 L1061 1557 L804 1 L1279 1442 L1279 159 L1257 1458 L215 1345 L560 38 L534 1555 L306 172 L508 1545 L1577 610 L495 1540 L161 319 L408 1498 L137 353 L927 1590 L708 6 L1 807 L694 8 L1 794 L831 1600 L586 30 L613 1578 L1372 1360 L1087 53 L640 1584 L1528 1134 L859 3 L1363 1370 L470 1529 L1574 1005 L327 1446 L205 266 L457 1523 L1400 1330 L253 217 L1496 405 L339 147 L1400 271 L1074 1552 L1391 261 L361 132 L95 1177 L626 20 L1558 1058 L508 1545 L224 246 L385 1484 L205 266 L1343 1389 L735 3 L7 903 L721 4 L4 876 L1533 479 L187 287 L1516 442 L457 78 L408 1498 L1435 1287 L1199 107 L95 424 L886 1596 L680 10 L1021 1569 L1061 44 L640 1584 L1533 1122 L295 1420 L1496 1196 L640 1584 L873 4 L1372 1360 L243 226 L253 1384 L274 198 L445 1517 L1391 1340 L1150 81 L1435 1287 L1008 28 L954 1586 L941 13 L941 1588 L408 103 L137 1248 L361 132 L613 1578 L101 411 L1322 194 L1199 1494 L1311 185 L1187 1501 L339 1454 L1234 1473 L224 1355 L600 26 L886 1596 L130 364 L1268 151 L1162 1514 L521 1550 L547 42 L640 1584 L385 117 L1391 261 L408 103 L790 1600 L115 388 L457 1523 L1599 759 L253 217 L1589 663 L385 117 L316 1437 L1577 991 L680 10 L1589 938 L653 1587 L22 616 L573 1567 L804 1 L408 1498 L1489 1207 L914 9 L1409 1319 L653 1587 L1581 978 L373 124 L178 1304 L653 14 L859 1598 L457 78 L88 1165 L361 132 L600 1575 L845 2 L1475 1231 L1099 58 L968 1583 L1021 32 L1467 1242 L339 1454 L1268 1450 L215 1345 L457 78 L1496 405 L22 985 L640 17 L1566 1031 L667 12 L1 794 L640 17 L161 1282 L508 56 L1482 382 L263 208 L306 1429 L224 246 L1363 1370 L626 1581 L1435 1287 L373 1477 L1174 1508 L1279 159 L776 1600 L1522 454 L763 1600 L6 711 L735 1598 L1400 1330 L421 1505 L534 46 L508 1545 L41 550 L547 1559 L790 1 L941 1588 L145 341 L1343 1389 L1048 40 L1008 1573 L586 30 L6 890 L573 34 L1570 583 L495 1540 L1570 1018 L373 124 L1549 518 L408 103 L82 1153 L361 132 L1554 530 L4 876 L1400 271 L350 139 L130 1237 L1589 938 L495 1540 L1162 1514 L385 1484 L130 364 L914 1592 L886 5 L1382 1350 L763 1 L1332 1398 L818 1 L600 1575 L327 155 L1562 557 L253 217 L1418 1309 L1210 113 L88 436 L445 1517 L1061 1557 L1391 261 L445 84 L1533 479 L667 1589 L1353 1379 L1162 87 L1460 1254 L968 18 L1427 1298 L708 1595 L33 576 L1074 49 L1435 1287 L886 5 L613 1578 L1382 1350 L470 1529 L1035 1565 L1087 53 L60 498 L600 1575 L16 643 L941 13 L763 1600 L1162 87 L71 1128 L573 34 L1301 1425 L680 1591 L1539 492 L495 61 L1452 336 L534 46 L613 1578 L859 3 L859 1598 L122 376 L1290 168 L1290 1433 L721 1597 L1418 1309 L1137 75 L981 1580 L339 1454 L1558 1058 L295 1420 L1503 1183 L284 1412 L327 155 L1596 883 L145 1260 L470 72 L41 1051 L433 90 L397 1491 L1409 1319 L161 319 L1372 1360 L626 20 L694 1593 L50 524 L1035 36 L981 1580 L521 1550 L1125 1532 L1363 231 L385 117 L196 1325 L1199 1494 L234 1365 L613 23 L350 1462 L1549 1083 L521 1550 L1363 1370 L153 330 L470 1529 L71 473 L667 1589 L914 9 L445 1517 L1087 1548 L1409 282 L274 198 L1586 650 L295 181 L508 1545 L1008 1573 L482 1535 L1021 1569 L613 23 L88 1165 L445 84 L831 1600 L108 400 L1528 1134 L653 14 L1382 1350 L749 1599 L187 287 L1322 1407 L482 66 L873 1597 L1021 32 L1496 1196 L927 11 L1444 1276 L626 1581 L373 124 L1596 883 L626 20 L1 794 L586 30 L680 1591 L1343 1389 L873 4 L445 1517 L1427 1298 L1174 93 L1452 1265 L178 297 L1544 505 L482 66 L1382 251 L11 931 L1528 467 L547 42 L433 1511 L1099 1543 L1418 292 L263 208 L196 1325 L1234 1473 L1332 203 L1210 1488 L361 1469 L1460 1254 L274 1403 L445 84 L1583 636 L560 38 L178 1304 L1210 1488 L306 172 L1593 910 L137 1248 L327 155 L130 1237 L1112 1537 L547 1559 L968 1583 L954 15 L1353 1379 L653 1587 L29 590 L613 1578 L65 486 L1234 128 L82 448 L1544 1096 L640 1584 L1418 1309 L224 246 L284 1412 L1591 677 L215 256 L560 1563 L941 1588 L350 1462 L1174 1508 L243 1375 L1187 1501 L640 17 L19 971 L1496 405 L1 780 L1489 394 L495 61 L161 1282 L1600 814 L508 56 L1533 479 L295 181 L1600 787 L667 1589 L9 684 L790 1600 L1353 1379 L482 1535 L1570 583 L457 1523 L1048 1561 L385 1484 L1427 1298 L339 1454 L1570 1018 L108 1201 L968 18 L101 1190 L640 17 L1598 869 L433 90 L37 1038 L1290 168 L1187 1501 L495 1540 L981 1580 L547 1559 L1599 745 L350 139 L76 1141 L1035 1565 L1074 49 L1409 1319 L735 1598 L1279 1442 L763 1 L1 766 L694 8 L1581 978 L316 1437 L1589 938 L215 1345 L306 172 L350 1462 L1222 1480 L234 1365 L521 51 L1475 370 L16 958 L1343 212 L385 117 L385 1484 L145 341 L361 1469 L1489 1207 L981 21 L1503 1183 L274 1403 L1509 1171 L613 23 L1 766 L586 30 L1332 1398 L137 353 L1444 325 L547 42 L6 890 L534 46 L1467 359 L470 72 L421 1505 L1125 1532 L397 1491 L1150 1520 L547 1559 L1599 842 L421 1505 L95 424 L1174 93 L1382 1350 L968 18 L95 1177 L954 15 L457 1523 L1074 1552 L573 1567 L914 1592 L508 1545 L1562 1044 L33 576 L968 18 L1400 1330 L284 189 L1400 271 L373 124 L1125 1532 L1427 303 L153 330 L433 1511 L845 2 L397 1491 L1418 1309 L457 1523 L927 11 L1353 1379 L763 1600 L1372 1360 L482 1535 L995 24 L640 1584 L1353 1379 L215 256 L1570 583 L316 164 L122 1225 L1583 965 L653 1587 L1516 1159 L274 1403 L1600 773 L170 1293 L1599 759 L433 90 L88 1165 L941 13 L1452 1265 L1187 100 L115 388 L508 1545 L1574 596 L600 26 L7 903 L1516 442 L327 155 L1409 282 L508 56 L95 1177 L470 72 L295 1420 L253 217 L1595 704 L521 51 L187 1314 L1562 1044 L178 1304 L1577 991 L115 1213 L1008 28 L22 616 L560 1563 L1099 1543 L735 1598 L1150 1520 L694 1593 L1290 1433 L859 3 L4 725 L804 1 L6 711 L763 1 L9 917 L749 2 L1 821 L1566 570 L600 26 L350 1462 L1528 1134 L534 1555 L995 1577 L495 1540 L1343 1389 L804 1600 L1268 1450 L776 1600 L1061 1557 L1382 251 L521 51 L508 1545 L1595 704 L295 1420 L1593 691 L457 78 L1311 1416 L680 1591 L1400 1330 L1199 107 L65 1115 L397 110 L60 1103 L385 117 L1301 176 L600 1575 L886 1596 L560 1563 L694 8 L1125 1532 L361 1469 L1162 1514 L253 1384 L1460 1254 L626 1581 L981 21 L115 1213 L470 72 L1391 261 L508 56 L6 890 L1509 430 L224 246 L274 1403 L1533 1122 L804 1 L1427 1298 L306 1429 L1489 1207 L385 1484 L350 139 L1372 1360 L1061 44 L1489 1207 L735 1598 L968 1583 L694 1593 L1035 1565 L470 1529 L60 498 L1245 136 L37 1038 L421 96 L1600 828 L421 1505 L1482 1219 L445 1517 L1112 1537 L433 1511 L1391 1340 L749 1599 L1099 58 L1444 1276 L339 1454 L1418 292 L495 61 L153 1271 L1599 842 L339 147 L327 1446 L1586 951 L224 1355 L586 30 L2 752 L1496 405 L482 66 L1596 718 L9 684 L749 2 L640 1584 L1554 1071 L521 1550 L886 1596 L763 1600 L1074 1552 L694 1593 L1435 1287 L680 1591 L1452 1265 L1112 64 L71 473 L1363 1370 L1257 143 L45 1064 L445 84 L1503 418 L25 998 L653 14 L1600 773 L667 1589 L1528 467 L316 164 L1222 1480 L818 1600 L1245 1465 L224 1355 L397 110 L1577 610 L205 266 L295 1420 L1581 978 L178 1304 L284 189 L1601 801 L421 1505 L776 1 L1 835 L1460 347 L573 34 L350 1462 L1418 1309 L1234 128 L1222 1480 L694 1593 L1332 1398 L547 42 L350 1462 L408 103 L71 1128 L1533 1122 L253 1384 L1558 1058 L196 1325 L667 12 L1554 1071 L350 1462 L1257 1458 L1343 212 L482 66 L1570 583 L640 17 L153 1271 L482 66 L547 1559 L640 1584 L457 1523 L1382 1350 L1150 81 L130 364 L373 1477 L1199 1494 L845 1599 L708 1595 L1279 1442 L215 1345 L1593 910 L433 90 L1549 518 L3 862 L508 56 L613 1578 L534 1555 L1544 1096 L818 1 L1 780 L1482 382 L373 124 L1372 241 L521 51 L178 1304 L1600 787 L316 1437 L1279 1442 L776 1600 L927 1590 L721 1597 L995 1577 L521 1550 L667 1589 L361 1469 L1544 1096 L88 436 L421 1505 L1137 1526 L408 1498 L1400 1330 L886 5 L886 5 Z" stroke="black" stroke-width="0.5" fill="none" />
</svg>